/* XPM */
static char *fd95b3e084644952b2c6acb5f7b3f4e9Gzq8uaepDWApvlbz[] = {
/* columns rows colors chars-per-pixel */
"32 32 2 1 ",
"  c black",
". c white",
/* pixels */
"                                ",
"             ...                ",
"            ..  .               ",
"            .   .               ",
"            .   ..              ",
"            .   ..              ",
"            .. ..               ",
"             ...                ",
"             . ..               ",
"           ....  .              ",
"          .   .   ....          ",
"        ..    .      ..         ",
"      ...     .        ..       ",
"              .                 ",
"              .                 ",
"              .                 ",
"             ...                ",
"             . .                ",
"            .   .               ",
"            .   .               ",
"           .     .              ",
"           .      .             ",
"          .       .             ",
"          .        .            ",
"          .        ..           ",
"         .          ..          ",
"         .           .          ",
"                                ",
"                                ",
"                                ",
"                                ",
"                                "
};
