/* XPM */
static char *_b5e667906164753f98e16364f72e0947RjZPEO0oh0ygEnl[] = {
/* columns rows colors chars-per-pixel */
"32 32 2 1 ",
"  c black",
". c white",
/* pixels */
"                                ",
"                             .  ",
"                           ..   ",
"                          .     ",
"   .                     .      ",
"   ..                   .       ",
"    ..                ..        ",
"      .              .          ",
"       .            .           ",
"        .           .           ",
"         .        ..            ",
"          .      .              ",
"          .     .               ",
"           .    .               ",
"            .  .                ",
"             ..                 ",
"             ..                 ",
"             ..                 ",
"           ..  .                ",
"          .     .               ",
"         .       .              ",
"        .         .             ",
"      ..           .            ",
"     .             .            ",
"     .              .           ",
"    .                ..         ",
"   .                  .         ",
"                       .        ",
"                                ",
"                                ",
"                                ",
"                                "
};
