/* XPM */
static char *d88f883ce367420da58eb18d95d3eb80ewm04xiQmsWtezRu[] = {
/* columns rows colors chars-per-pixel */
"32 32 2 1 ",
"  c black",
". c white",
/* pixels */
"                                ",
"                                ",
"                                ",
"                                ",
"               ....             ",
"            ....   ..           ",
"           ..       ...         ",
"          .           .         ",
"         .             .        ",
"        .              .        ",
"       .               ..       ",
"      .                 .       ",
"      .                  .      ",
"     .                   .      ",
"     .                   .      ",
"     .                   .      ",
"     .                   .      ",
"     .                   .      ",
"    ...                 ..      ",
"    . .                 .       ",
"    ..                 .        ",
"     .                ..        ",
"     ..               .         ",
"      ...            .          ",
"        ..         ..           ",
"          ....  ....            ",
"             ...                ",
"                                ",
"                                ",
"                                ",
"                                ",
"                                "
};
