/* XPM */
static char *_fd8070eaf3c43fe8c828e81bf18a2fd7JJzsrqEcMGbJ61M[] = {
/* columns rows colors chars-per-pixel */
"32 32 2 1 ",
"  c black",
". c white",
/* pixels */
"                                ",
"                                ",
"                                ",
"                                ",
"                                ",
"              .....             ",
"             ..   .             ",
"             .    .             ",
"            .     .             ",
"            .     .             ",
"           .      .             ",
"           .      .             ",
"          ..      .             ",
"          .       .             ",
"          .       .             ",
"          .       .             ",
"          .       .             ",
"          .       .             ",
"          .       .             ",
"          .       .             ",
"          .       .             ",
"          ..      .             ",
"           .      .             ",
"           .     .              ",
"           .     .              ",
"            .   ..              ",
"            .   .               ",
"            ....                ",
"             ..                 ",
"                                ",
"                                ",
"                                "
};
