/* XPM */
static char *_a21b991096c418aad88102696a7f06doRJfOKh5GN8X7kLu[] = {
/* columns rows colors chars-per-pixel */
"32 32 2 1 ",
"  c black",
". c white",
/* pixels */
"                                ",
"                                ",
"                                ",
"       .............            ",
"      ....         .            ",
"      .   ..       .            ",
"      .    ..      .            ",
"      .     ...    .            ",
"      .       ..   .            ",
"      .        .   .            ",
"      .        .   .            ",
"      .        .   .            ",
"      .        .   .            ",
"      .        .   .            ",
"      .        .   .            ",
"      .        .   .            ",
"      .        .   .            ",
"      .        .   .            ",
"      .        .   .            ",
"      .     .. .   .            ",
"      .     .. .   .            ",
"      .        .   .            ",
"      .        .   .            ",
"      .        .   .            ",
"      .        .   .            ",
"      .        .   .            ",
"      .        .   .            ",
"      .        .   .            ",
"      .        .   .            ",
"       ..      .   .            ",
"         ..    .   .            ",
"           ... .   .            "
};
